<svg class="logo" version="1.0" xmlns="http://www.w3.org/2000/svg"
                width="1000px" height="1000px" viewBox="0 0 2048.000000 2048.000000"
                preserveAspectRatio="xMidYMid meet">
        
                    <g class="logo-outline" transform="translate(0.000000,2048.000000) scale(0.100000,-0.100000)"
                    fill="#000000" stroke="none">
                        <path class="sample-bite" d="M10000 16114 c-426 -33 -538 -59 -843 -192 -72 -32 -148 -65 -167
                        -72 -93 -36 -347 -164 -443 -223 -135 -84 -342 -227 -474 -329 -213 -164 -336
                        -302 -465 -523 -35 -60 -104 -177 -152 -259 -49 -81 -101 -177 -117 -211 -30
                        -66 -111 -331 -123 -400 -4 -22 -18 -89 -31 -150 -13 -60 -28 -155 -34 -210
                        -13 -130 -24 -746 -13 -763 6 -8 16 7 32 45 13 32 41 96 63 143 88 190 97 224
                        97 350 1 192 50 481 127 735 48 158 58 182 157 348 46 78 117 198 157 267 157
                        266 264 373 629 627 267 186 402 261 675 379 99 42 216 92 259 111 193 83 337
                        109 756 139 168 12 297 15 455 11 419 -11 675 -64 1155 -239 209 -76 241 -93
                        433 -225 87 -59 199 -135 249 -167 54 -36 144 -111 222 -186 72 -69 208 -192
                        301 -274 233 -204 305 -276 385 -381 71 -94 193 -215 216 -215 8 0 54 -13 103
                        -29 86 -27 90 -28 94 -9 13 50 -41 139 -134 220 -34 29 -93 98 -132 153 -86
                        121 -125 161 -377 382 -107 94 -258 230 -334 303 -106 100 -178 158 -300 239
                        -89 59 -205 137 -259 174 -117 80 -187 117 -327 170 -406 153 -724 235 -1049
                        267 -139 14 -587 11 -791 -6z"/>
                        <g class="sample-topping">
                            <path d="M11145 15560 c-16 -4 -57 -21 -90 -37 -33 -17 -105 -45 -160 -63 -55
                            -17 -114 -40 -131 -51 -82 -50 -94 -154 -24 -213 49 -41 74 -40 230 4 232 67
                            316 113 341 188 33 100 -61 198 -166 172z"/>
                            <path d="M9292 15190 c-49 -31 -67 -80 -53 -149 6 -31 16 -86 20 -123 5 -36
                            17 -83 27 -103 49 -105 203 -115 250 -17 17 37 16 56 -10 191 -22 119 -32 143
                            -71 181 -44 43 -113 52 -163 20z"/>
                            <path d="M11627 14479 c-159 -161 -196 -213 -197 -272 0 -43 28 -94 65 -117
                            35 -21 104 -27 134 -10 10 5 58 56 106 112 49 57 117 133 151 169 73 76 93
                            129 75 190 -17 57 -61 89 -124 89 l-52 0 -158 -161z"/>
                        </g>
                        <path d="M9638 14520 c-69 -21 -314 -197 -438 -316 -52 -49 -130 -118 -172
                        -152 -42 -34 -112 -106 -155 -159 -99 -122 -150 -153 -252 -153 -51 0 -92 9
                        -172 36 -84 29 -124 37 -206 41 -126 7 -151 -2 -203 -72 -57 -77 -82 -92 -479
                        -283 -36 -17 -65 -41 -87 -71 -31 -42 -134 -238 -134 -255 0 -4 -34 -84 -76
                        -179 -114 -255 -110 -239 -112 -482 -2 -197 0 -224 32 -430 55 -348 108 -497
                        336 -955 143 -288 260 -499 339 -612 64 -92 285 -323 414 -434 260 -222 408
                        -296 1094 -543 247 -89 619 -188 788 -210 111 -15 687 -59 876 -67 224 -10
                        351 13 559 99 47 19 139 54 205 77 208 73 324 138 550 305 118 88 181 144 295
                        264 89 94 193 191 270 251 219 172 481 448 570 600 55 93 154 383 186 542 16
                        82 49 196 86 298 70 195 163 560 177 697 6 54 12 322 15 596 l5 499 -24 123
                        c-14 67 -36 159 -50 204 -29 92 -127 332 -149 366 -21 32 -217 88 -267 76 -89
                        -21 -345 -241 -471 -404 -66 -86 -133 -154 -159 -162 -10 -3 -46 8 -80 26 -34
                        17 -141 64 -236 105 -96 41 -227 101 -292 134 -103 52 -126 60 -175 60 -31 0
                        -71 -6 -89 -14 -50 -21 -186 -126 -285 -220 -93 -87 -149 -122 -241 -150 -72
                        -21 -124 -21 -143 2 -8 9 -28 41 -44 71 -62 116 -135 145 -364 145 -147 0
                        -163 -2 -299 -37 -79 -21 -146 -36 -148 -33 -3 3 0 45 7 93 7 48 14 133 14
                        188 1 94 -1 104 -33 169 -80 163 -253 273 -504 321 -84 16 -234 19 -279 5z
                        m218 -191 c182 -32 307 -94 368 -182 33 -48 36 -58 36 -122 0 -39 -7 -131 -16
                        -205 -19 -152 -13 -198 32 -243 50 -50 120 -48 344 9 120 30 150 34 265 34 84
                        0 139 -5 155 -13 14 -7 37 -34 52 -61 32 -60 87 -120 130 -142 47 -25 173 -21
                        263 7 119 37 200 84 292 170 101 96 224 195 253 204 14 4 54 -11 128 -49 59
                        -31 196 -94 304 -140 109 -46 226 -102 261 -125 47 -30 73 -41 103 -41 38 0
                        104 31 104 48 0 5 26 29 58 53 34 27 93 92 145 162 85 113 220 247 330 330
                        l51 39 14 -41 c9 -27 25 -47 47 -61 27 -17 40 -38 73 -123 50 -127 65 -182 93
                        -327 19 -100 21 -133 14 -250 -3 -74 -10 -319 -14 -545 l-8 -410 -47 -190
                        c-27 -104 -64 -235 -83 -290 -77 -219 -102 -305 -127 -426 -28 -137 -110 -380
                        -157 -469 -67 -126 -344 -417 -544 -570 -113 -87 -128 -101 -325 -306 -198
                        -204 -464 -383 -685 -459 -44 -15 -142 -52 -217 -82 -209 -82 -263 -93 -447
                        -93 -141 0 -484 22 -806 51 -297 26 -592 110 -1240 350 -390 145 -596 283
                        -892 599 -169 181 -261 331 -494 805 -206 420 -241 521 -294 858 -39 241 -43
                        337 -19 385 14 29 14 43 1 144 -19 147 -13 185 35 227 21 18 51 60 67 94 166
                        351 170 359 228 378 53 17 284 133 358 180 35 22 83 62 109 89 59 63 73 63
                        243 9 154 -49 234 -58 320 -35 130 33 213 93 319 231 30 40 84 95 118 122 35
                        26 105 88 157 137 97 92 243 205 338 263 61 37 102 41 207 22z"/>
                        <path d="M10387 13375 c-60 -16 -145 -67 -208 -123 -54 -49 -207 -238 -267
                        -330 -51 -79 -77 -169 -60 -208 6 -16 14 -60 18 -99 9 -98 65 -332 100 -423
                        63 -163 141 -262 248 -314 65 -32 70 -33 197 -33 151 0 347 27 420 58 28 11
                        86 44 130 72 44 29 105 65 135 81 126 67 208 190 261 390 27 101 32 138 32
                        244 2 145 -13 195 -91 315 -121 184 -326 327 -532 371 -83 17 -318 17 -383 -1z
                        m373 -180 c30 -8 89 -31 130 -51 103 -51 242 -189 291 -289 32 -66 34 -76 33
                        -170 0 -111 -33 -254 -78 -343 -28 -55 -86 -111 -148 -143 -24 -12 -76 -44
                        -116 -71 -41 -28 -93 -56 -115 -64 -58 -19 -181 -35 -314 -41 -107 -5 -115 -4
                        -156 20 -24 14 -56 42 -71 62 -80 105 -180 418 -181 565 0 67 4 84 37 150 45
                        92 196 281 261 328 27 19 65 41 85 48 52 18 271 18 342 -1z"/>
                        <path d="M8537 13020 c-32 -10 -158 -129 -216 -205 -22 -27 -62 -88 -90 -134
                        -43 -71 -51 -92 -51 -134 0 -44 4 -54 38 -87 49 -50 94 -59 155 -32 38 17 52
                        32 95 103 79 131 114 177 155 205 72 52 100 130 72 202 -27 67 -94 101 -158
                        82z"/>
                        <path d="M12724 12959 c-100 -29 -145 -164 -83 -243 12 -15 39 -36 60 -47 38
                        -19 81 -58 162 -146 24 -26 52 -45 80 -53 116 -32 217 69 173 173 -14 35 -185
                        217 -203 217 -5 0 -17 16 -27 35 -32 59 -96 84 -162 64z"/>
                        <path d="M8799 11453 c-65 -40 -78 -129 -30 -205 36 -57 246 -247 314 -284 93
                        -50 174 -29 217 56 47 92 2 195 -93 215 -40 9 -124 71 -202 151 -34 33 -70 66
                        -82 73 -31 16 -94 13 -124 -6z"/>
                        <path d="M11916 11249 c-72 -21 -115 -110 -101 -207 8 -58 185 -417 233 -473
                        42 -49 91 -65 149 -50 70 19 116 97 99 166 -4 14 -39 83 -80 153 -114 199
                        -136 244 -136 282 0 85 -85 152 -164 129z"/>
                        <path d="M10521 10754 c-50 -26 -81 -82 -112 -203 -15 -60 -46 -154 -69 -208
                        -47 -111 -53 -164 -24 -213 22 -38 76 -70 117 -70 44 0 96 29 122 69 28 43 97
                        246 119 351 9 41 22 94 30 116 40 112 -76 212 -183 158z"/>
                    </g>
                </svg>