<?xml version="1.0" standalone="no"?>
<!DOCTYPE svg PUBLIC "-//W3C//DTD SVG 20010904//EN"
 "http://www.w3.org/TR/2001/REC-SVG-20010904/DTD/svg10.dtd">
<svg version="1.0" xmlns="http://www.w3.org/2000/svg"
 width="25px" height="25px" viewBox="0 0 1450.000000 1440.000000"
 preserveAspectRatio="xMidYMid meet">

<g transform="translate(0.000000,1440.000000) scale(0.100000,-0.100000)"
fill="#000000" stroke="none">
<path d="M5895 14388 c-404 -39 -570 -63 -760 -113 -210 -55 -470 -152 -755
-283 -36 -16 -121 -53 -190 -82 -656 -273 -937 -428 -1550 -857 -360 -251
-455 -324 -700 -532 -315 -268 -478 -478 -770 -991 -112 -196 -222 -384 -314
-534 -88 -143 -165 -297 -209 -421 -84 -233 -171 -537 -206 -715 -6 -30 -26
-125 -45 -210 -99 -440 -106 -520 -117 -1285 -10 -625 -9 -781 6 -805 8 -13
26 18 57 95 10 28 31 75 45 105 14 30 29 64 33 75 4 11 22 52 40 90 18 39 36
79 41 90 4 11 31 69 59 129 28 61 54 124 57 140 3 17 19 60 34 95 17 36 29 81
29 104 0 28 11 61 36 106 63 115 282 428 325 465 58 49 214 140 274 159 28 9
91 23 140 31 108 18 197 45 285 89 51 25 88 56 175 147 216 225 249 255 316
287 120 56 188 73 302 73 131 0 446 -55 627 -111 139 -42 234 -41 322 4 83 42
247 168 367 283 53 50 148 136 211 191 63 56 174 161 246 235 530 540 548 555
814 695 129 68 185 88 341 117 161 31 399 36 483 11 28 -8 122 -29 210 -46
193 -36 199 -38 351 -101 198 -83 224 -99 285 -173 30 -36 66 -85 79 -108 24
-42 74 -108 142 -183 43 -48 110 -161 139 -233 21 -55 51 -174 75 -303 12 -66
12 -91 1 -165 -7 -49 -23 -106 -35 -128 -39 -74 -23 -134 39 -150 20 -5 41 4
94 40 106 73 185 92 476 116 127 11 139 10 197 -10 34 -12 76 -21 92 -21 109
0 370 -90 506 -176 28 -17 80 -45 117 -63 36 -17 97 -55 135 -85 114 -89 143
-106 182 -106 80 0 219 94 334 224 32 36 111 108 175 161 64 52 158 130 209
173 107 91 150 116 296 171 123 47 197 60 279 49 127 -16 505 -151 723 -258
66 -33 154 -71 195 -86 82 -29 253 -116 340 -174 132 -87 186 -111 277 -120
170 -18 215 9 330 195 34 55 82 127 108 160 25 33 73 96 106 140 78 103 282
310 380 384 87 66 188 112 339 153 167 45 222 46 365 5 125 -36 208 -64 237
-78 18 -9 18 -8 33 64 14 73 -88 241 -227 373 -186 178 -225 222 -338 384
-141 204 -302 369 -625 645 -270 231 -618 547 -815 741 -190 187 -300 279
-440 371 -145 96 -560 374 -750 505 -219 149 -467 270 -750 364 -25 8 -54 19
-65 24 -11 5 -40 16 -65 24 -25 8 -103 36 -175 61 -311 111 -556 183 -880 258
-99 23 -146 33 -320 66 -27 6 -86 15 -130 21 -44 6 -102 15 -128 21 -61 11
-2027 9 -2152 -3z m487 -1199 c103 -21 172 -79 230 -189 18 -36 64 -102 100
-147 78 -96 144 -193 220 -323 221 -379 255 -533 152 -696 -58 -93 -153 -144
-269 -144 -98 0 -167 30 -240 104 -60 61 -79 94 -175 301 -80 173 -170 319
-271 441 -116 139 -139 188 -138 297 1 166 105 312 251 351 66 18 75 19 140 5z
m-2800 -759 c100 -38 166 -113 195 -223 22 -85 6 -165 -50 -248 l-39 -59 -4
-378 c-3 -288 -8 -389 -19 -427 -76 -267 -424 -330 -594 -109 -54 71 -64 113
-69 274 -5 174 32 783 54 885 30 139 125 242 269 294 71 25 178 21 257 -9z
m7354 -335 c78 -24 143 -80 184 -159 31 -62 35 -77 35 -150 0 -67 -5 -91 -27
-138 -56 -120 -154 -182 -433 -276 -393 -131 -493 -151 -610 -117 -164 48
-260 224 -211 387 33 112 116 184 266 232 46 15 144 50 216 77 73 27 135 49
138 49 3 0 36 14 73 31 170 79 264 96 369 64z"/>
<path d="M5440 11146 c-101 -29 -223 -99 -416 -242 -67 -49 -160 -117 -208
-152 -110 -81 -148 -113 -337 -294 -86 -82 -226 -204 -310 -272 -157 -125
-195 -165 -310 -316 -106 -140 -212 -241 -299 -284 -171 -82 -304 -76 -604 28
-219 77 -278 88 -469 90 -146 0 -167 -2 -207 -21 -57 -27 -92 -60 -162 -154
-31 -42 -82 -96 -117 -122 -114 -85 -555 -314 -743 -385 -118 -45 -174 -79
-239 -147 -61 -64 -170 -239 -225 -365 -26 -58 -55 -118 -64 -135 -10 -16 -31
-66 -45 -110 -15 -44 -45 -118 -67 -163 -21 -46 -49 -107 -62 -135 -13 -29
-33 -74 -46 -102 -12 -27 -25 -59 -30 -70 -4 -11 -17 -40 -29 -63 -11 -24 -21
-48 -21 -54 0 -5 -13 -37 -29 -71 -16 -34 -42 -98 -58 -142 -25 -73 -28 -93
-28 -225 0 -80 -4 -262 -9 -405 l-8 -260 32 -215 c17 -118 35 -233 40 -255 5
-22 16 -89 25 -150 31 -225 60 -375 85 -455 4 -14 13 -45 20 -70 38 -135 173
-501 253 -685 19 -44 103 -219 186 -388 84 -170 169 -346 190 -392 105 -225
433 -817 566 -1020 106 -164 150 -220 284 -365 433 -467 764 -764 1086 -972
275 -177 616 -343 938 -454 54 -19 173 -64 265 -100 92 -36 232 -88 312 -114
80 -27 233 -81 340 -120 107 -39 294 -100 415 -135 121 -35 283 -82 360 -105
172 -50 351 -94 530 -129 224 -44 299 -52 830 -96 208 -17 382 -30 580 -44 77
-6 210 -16 295 -23 215 -17 806 -17 885 0 252 55 337 82 640 202 121 48 294
113 385 145 408 141 663 279 1041 561 80 60 184 136 230 169 92 65 349 311
492 470 145 161 256 272 342 340 44 35 159 127 255 203 314 249 536 471 915
917 146 172 256 372 339 615 19 58 49 143 66 190 85 231 106 305 155 560 47
237 92 399 160 575 99 254 146 403 206 645 200 814 189 723 190 1545 0 341 5
688 10 770 5 83 12 274 15 425 l6 275 -31 175 c-17 96 -35 193 -40 215 -6 22
-20 83 -31 135 -12 52 -36 138 -52 190 -43 135 -220 578 -276 688 -53 105 -70
119 -192 152 -25 7 -56 16 -70 20 -14 4 -59 17 -100 30 -41 12 -90 26 -107 31
-36 11 -111 3 -160 -16 -88 -36 -297 -195 -513 -390 -184 -167 -307 -297 -420
-445 -52 -69 -119 -151 -150 -184 -61 -65 -169 -146 -193 -146 -9 0 -40 14
-69 31 -88 52 -197 105 -308 149 -58 23 -190 79 -295 124 -104 46 -226 98
-270 116 -44 18 -107 48 -140 65 -33 18 -105 56 -160 85 -55 29 -104 56 -110
60 -5 4 -37 17 -70 29 -47 18 -81 23 -160 23 -153 0 -212 -27 -445 -207 -141
-108 -159 -124 -336 -294 -78 -75 -166 -151 -197 -169 -142 -85 -349 -152
-470 -152 -79 0 -100 16 -153 121 -95 190 -208 289 -380 332 -222 57 -652 46
-908 -23 -39 -10 -116 -31 -171 -46 -97 -26 -146 -38 -212 -50 l-33 -7 0 47
c0 26 4 66 9 89 11 48 26 183 41 370 12 144 2 253 -33 347 -43 115 -153 277
-260 381 -174 170 -534 316 -916 374 -122 18 -377 19 -441 1z m2210 -2712
c159 -33 338 -111 493 -216 137 -92 365 -347 437 -488 57 -112 70 -174 70
-333 0 -167 -21 -294 -84 -514 -80 -276 -174 -398 -396 -512 -36 -19 -133 -78
-216 -133 -194 -127 -258 -154 -411 -173 -65 -9 -163 -23 -218 -32 -55 -9
-122 -19 -150 -24 -72 -11 -254 -11 -315 1 -155 29 -277 151 -389 390 -80 171
-82 177 -174 530 -64 248 -71 286 -75 390 -4 135 5 178 57 285 22 44 47 98 56
119 17 42 46 81 224 306 145 184 178 218 276 290 167 121 191 127 500 129 183
1 258 -3 315 -15z m3817 -433 c67 -24 115 -62 153 -119 29 -44 60 -127 60
-162 0 -9 19 -39 43 -67 108 -126 158 -214 183 -320 50 -216 -110 -410 -320
-390 -121 12 -213 72 -302 199 -32 46 -89 121 -128 168 -134 164 -170 242
-169 370 1 122 48 215 142 278 90 62 236 80 338 43z m-6795 -242 c72 -15 115
-39 165 -91 135 -139 114 -350 -48 -478 -95 -75 -261 -136 -459 -169 -69 -12
-177 -30 -240 -42 -266 -48 -244 -46 -595 -34 -176 7 -182 6 -257 -19 -88 -30
-123 -32 -198 -11 -35 10 -139 19 -285 25 -567 25 -764 89 -857 278 -59 120
-49 277 25 374 117 153 295 176 460 59 38 -28 51 -31 152 -37 61 -3 232 -1
382 5 245 11 278 10 335 -5 50 -13 89 -15 185 -10 66 3 143 11 170 17 26 7
104 12 173 11 112 -1 318 18 525 49 39 5 95 22 125 36 47 22 138 49 177 52 7
1 36 -4 65 -10z m7371 -2358 c231 -111 235 -439 6 -556 -43 -22 -79 -31 -233
-55 -87 -14 -311 -101 -465 -181 -107 -56 -126 -62 -192 -67 -89 -5 -141 8
-205 51 -167 112 -194 344 -58 496 96 106 196 158 504 261 206 69 323 90 470
86 95 -2 112 -6 173 -35z m-7861 -632 c72 -16 116 -39 181 -99 125 -114 153
-286 67 -420 -16 -25 -45 -99 -65 -165 -20 -66 -52 -165 -71 -220 -65 -183
-121 -360 -143 -447 -21 -82 -21 -88 -5 -125 44 -103 53 -178 29 -257 -28 -92
-82 -155 -175 -203 -50 -25 -65 -28 -156 -28 -96 0 -103 2 -176 38 -115 56
-193 154 -230 286 -51 183 2 401 235 976 35 88 77 205 92 260 69 254 96 303
194 362 81 49 139 60 223 42z m3743 -1010 c59 -29 168 -129 229 -210 95 -127
211 -382 262 -575 44 -171 43 -294 -3 -388 -24 -47 -94 -116 -148 -144 -44
-24 -62 -27 -145 -27 -83 0 -101 3 -145 27 -61 32 -130 104 -156 164 -11 24
-33 104 -49 178 -48 218 -96 332 -187 445 -81 100 -98 143 -98 251 0 87 3 100
30 149 36 65 92 114 159 141 71 28 182 23 251 -11z"/>
</g>
</svg>
